<?xml version="1.0" encoding="UTF-8"?>
<!-- Svg Vector Icons : http://www.onlinewebfonts.com/icon -->
<!DOCTYPE svg PUBLIC "-//W3C//DTD SVG 1.1//EN" "http://www.w3.org/Graphics/SVG/1.1/DTD/svg11.dtd">
<svg
            viewBox="0 0 140.01904 104.64078"
            version="1.1"
            id="svg5"
            xmlns="http://www.w3.org/2000/svg"
            xmlns:svg="http://www.w3.org/2000/svg">
            <g
              id="layer1"
              transform="translate(-42.356466,-23.055963)">
            <path
              d="m 168.31535,77.441867 c -2.4462,-4.487845 -5.77796,-9.179432 -9.23279,-13.001045 -1.23733,-1.368687 -3.24726,-3.39975 -4.4861,-4.533225 -5.51859,-5.049275 -11.51737,-8.969894 -18.22955,-11.914278 -9.30889,-4.083461 -19.57997,-5.850201 -29.89648,-5.142536 -13.366037,0.916865 -26.184099,6.111085 -36.695847,14.87015 -1.544643,1.287097 -2.73565,2.370842 -4.24113,3.859179 -3.34163,3.303596 -6.130069,6.671212 -8.758677,10.577907 l -0.597439,0.887922 -6.910435,-5.843988 -6.910436,-5.844001 0.07333,-0.121396 c 0.04033,-0.06677 0.339994,-0.524607 0.665919,-1.01742 7.582833,-11.465738 17.688104,-20.886107 29.342703,-27.353947 10.323194,-5.728968 21.637176,-9.019342 33.325522,-9.691855 1.74956,-0.100664 3.19121,-0.131591 5.20389,-0.111636 2.04183,0.02024 2.67752,0.04344 4.48016,0.163471 13.26049,0.882978 26.13866,5.220848 37.4783,12.624158 3.32615,2.171546 6.52018,4.603251 9.51173,7.241552 2.4626,2.171814 5.33175,5.041433 7.52914,7.530361 3.9082,4.426717 7.42018,9.337702 10.40032,14.543307 0.84954,1.483935 2.04717,3.731113 2.00704,3.765891 -0.009,0.0081 -3.10315,1.981384 -6.8751,4.385062 -3.77195,2.403678 -6.89024,4.391028 -6.92952,4.416336 -0.0677,0.04358 -0.081,0.02836 -0.25455,-0.289969 z"
              id="path1437" />
            <path
              d="m 146.39527,90.329643 c -0.44464,-0.736347 -1.37703,-2.135031 -1.91164,-2.867665 -3.10653,-4.257193 -6.83167,-7.822937 -11.09775,-10.622897 -7.8727,-5.167089 -17.11336,-7.404537 -26.43297,-6.400234 -10.301078,1.110069 -19.854335,6.252149 -26.792521,14.421195 -1.134267,1.335485 -2.302752,2.897402 -3.220031,4.304227 -0.145337,0.222902 -0.277874,0.400202 -0.294534,0.393989 -0.01666,-0.0063 -2.23182,-1.872271 -4.922583,-4.146816 -3.806703,-3.217864 -4.886281,-4.147441 -4.865172,-4.189187 0.05901,-0.116681 0.898373,-1.295472 1.410876,-1.981411 3.314687,-4.436408 7.354097,-8.412631 11.803816,-11.619215 5.516826,-3.975573 11.675687,-6.832883 18.224059,-8.454795 7.3833,-1.828714 15.14932,-2.028288 22.64799,-0.58201 6.8887,1.328634 13.50512,4.062504 19.38532,8.009902 6.07871,4.080648 11.34085,9.431237 15.34557,15.603502 0.49309,0.759975 1.30046,2.077524 1.2993,2.120325 -5.2e-4,0.01915 -9.60013,6.158446 -10.12662,6.476341 l -0.12618,0.07618 z"
              id="path1435" />
            <path
              d="m 88.803936,98.902108 c -2.11106,-1.784155 -3.882027,-3.286611 -3.935487,-3.338804 l -0.09719,-0.09489 0.319098,-0.462164 c 3.477051,-5.03595 8.286214,-8.993482 13.764246,-11.326824 3.304047,-1.407345 6.744767,-2.211658 10.367697,-2.423606 0.90925,-0.05318 3.40928,-0.0227 4.24408,0.05176 4.092,0.364983 7.83127,1.428056 11.40719,3.243068 4.20857,2.136125 7.90951,5.213433 10.87301,9.040843 0.43149,0.557275 1.10413,1.497442 1.09377,1.528794 -0.008,0.02458 -8.57942,5.498195 -8.65552,5.527395 -0.0218,0.008 -0.15332,-0.1253 -0.29231,-0.29701 -1.14737,-1.417486 -2.77663,-2.949172 -4.29408,-4.036889 -3.17087,-2.272917 -6.73299,-3.616712 -10.63177,-4.010806 -0.73661,-0.07445 -2.55374,-0.104124 -3.30843,-0.05402 -2.99907,0.199105 -5.61257,0.892755 -8.25384,2.190649 -3.318098,1.630482 -6.302418,4.195518 -8.441493,7.255496 -0.165625,0.23693 -0.305533,0.43531 -0.310909,0.44084 -0.0054,0.006 -1.737005,-1.4497 -3.848061,-3.233839 z"
              id="path1433" />
            <circle
              id="path1251"
              cx="110.71288"
              cy="114.14108"
              r="13.555662" />
            </g>
          </svg>
